<svg width="28" height="28" viewBox="0 0 28 28" fill="none" xmlns="http://www.w3.org/2000/svg">
<path d="M24.7617 13.8828C24.7617 13.5898 24.6445 13.3203 24.4102 13.0977L16.6406 5.35156C16.3828 5.09375 16.1367 5 15.8555 5C15.2812 5 14.8359 5.42188 14.8359 6.00781C14.8359 6.28906 14.9297 6.55859 15.1172 6.74609L17.7422 9.41797L22.3945 13.6602L22.6289 13.0742L18.8555 12.8398H4.03125C3.42188 12.8398 3 13.2734 3 13.8828C3 14.4922 3.42188 14.9258 4.03125 14.9258H18.8555L22.6289 14.6914L22.3945 14.1172L17.7422 18.3477L15.1172 21.0195C14.9297 21.1953 14.8359 21.4766 14.8359 21.7578C14.8359 22.3438 15.2812 22.7656 15.8555 22.7656C16.1367 22.7656 16.3828 22.6602 16.6172 22.4375L24.4102 14.668C24.6445 14.4453 24.7617 14.1758 24.7617 13.8828Z" fill="black" fill-opacity="0.85"/>
</svg>
