<svg width="28" height="28" viewBox="0 0 28 28" fill="none" xmlns="http://www.w3.org/2000/svg">
<path d="M21.1875 24.687L27.0938 18.6284C27.3047 18.4292 27.4219 18.1245 27.4219 17.855C27.4219 17.2339 27 16.8237 26.3906 16.8237C26.0859 16.8237 25.8633 16.9175 25.6641 17.1167L23.2266 19.6362L21.3398 21.8277L21.4453 19.1206V4.06202C21.4453 3.45264 21.0117 3.00732 20.4023 3.00732C19.7812 3.00732 19.3477 3.45264 19.3477 4.06202V19.1206L19.4648 21.8277L17.5781 19.6362L15.1406 17.1167C14.9414 16.9175 14.707 16.8237 14.4141 16.8237C13.8047 16.8237 13.3711 17.2339 13.3711 17.855C13.3711 18.1245 13.5 18.4292 13.7109 18.6284L19.6172 24.687C20.0508 25.1441 20.7305 25.1558 21.1875 24.687Z" fill="black" fill-opacity="0.85"/>
<path d="M6.24609 3.35888L0.328125 9.39404C0.128906 9.60497 0 9.90966 0 10.1675C0 10.7886 0.421875 11.2104 1.03125 11.2104C1.33594 11.2104 1.57031 11.105 1.76953 10.9058L4.20703 8.38622L6.09375 6.20654L5.97656 8.91357V23.9722C5.97656 24.5933 6.41016 25.0269 7.03125 25.0269C7.64062 25.0269 8.07422 24.5933 8.07422 23.9722V8.91357L7.96875 6.20654L9.84375 8.38622L12.293 10.9058C12.4922 11.105 12.7148 11.2104 13.0195 11.2104C13.6289 11.2104 14.0508 10.7886 14.0508 10.1675C14.0508 9.90966 13.9336 9.60497 13.7227 9.39404L7.81641 3.35888C7.38281 2.90185 6.69141 2.87841 6.24609 3.35888Z" fill="black" fill-opacity="0.85"/>
</svg>
