<svg width="29" height="28" viewBox="0 0 29 28" fill="none" xmlns="http://www.w3.org/2000/svg">
<g clip-path="url(#clip0_2124_88473)">
<path d="M1.44141 26.9336H3.65625C4.58203 26.9336 5.09766 26.4062 5.09766 25.4922V5.69922C5.09766 4.77344 4.58203 4.24609 3.65625 4.24609H1.44141C0.503906 4.24609 0 4.77344 0 5.69922V25.4922C0 26.4062 0.503906 26.9336 1.44141 26.9336ZM7.91016 26.9336H12.6562C13.5938 26.9336 14.0977 26.4062 14.0977 25.4922V9.69531C14.0977 8.78125 13.5938 8.25391 12.6562 8.25391H7.91016C6.97266 8.25391 6.45703 8.78125 6.45703 9.69531V25.4922C6.45703 26.4062 6.97266 26.9336 7.91016 26.9336ZM9.02344 12.4375C8.60156 12.4375 8.28516 12.1211 8.28516 11.7109C8.28516 11.3125 8.60156 10.9961 9.02344 10.9961H11.5664C11.9766 10.9961 12.2812 11.3125 12.2812 11.7109C12.2812 12.1211 11.9766 12.4375 11.5664 12.4375H9.02344ZM9.02344 24.2031C8.60156 24.2031 8.28516 23.8867 8.28516 23.4766C8.28516 23.0781 8.60156 22.7617 9.02344 22.7617H11.5664C11.9766 22.7617 12.2812 23.0781 12.2812 23.4766C12.2812 23.8867 11.9766 24.2031 11.5664 24.2031H9.02344ZM16.9102 26.9336H19.8047C20.7422 26.9336 21.2461 26.4062 21.2461 25.4922V2.45312C21.2461 1.52734 20.7422 1 19.8047 1H16.9102C15.9727 1 15.4688 1.52734 15.4688 2.45312V25.4922C15.4688 26.4062 15.9727 26.9336 16.9102 26.9336ZM24.8789 26.9922L26.7656 26.7227C27.6797 26.6055 28.125 26.043 28.0195 25.1172L25.7812 5.67578C25.6758 4.76172 25.125 4.28125 24.1875 4.41016L22.3125 4.67969C21.3867 4.79688 20.9414 5.35938 21.0469 6.27344L23.2969 25.7148C23.4023 26.6289 23.9531 27.1094 24.8789 26.9922Z" fill="black" fill-opacity="0.85"/>
</g>
<defs>
<clipPath id="clip0_2124_88473">
<rect width="28.0348" height="26.7539" fill="white" transform="translate(0 1)"/>
</clipPath>
</defs>
</svg>
