<svg width="28" height="28" viewBox="0 0 28 28" fill="none" xmlns="http://www.w3.org/2000/svg">
<g clip-path="url(#clip0_2124_88468)">
<path d="M1 22.8164C1 23.7773 1.63281 24.1523 2.32422 24.1523C2.72266 24.1523 3.0625 23.918 3.50781 23.6484C4.79688 22.7695 6.39062 22.2305 8.01953 22.2422C9.70703 22.2539 11.3828 22.875 12.6953 24.1406C13.2109 24.6094 13.5859 24.7617 14.0195 24.7617C14.4414 24.7617 14.8281 24.6094 15.332 24.1406C16.6445 22.8867 18.3203 22.2539 20.0195 22.2422C21.6484 22.2305 23.2305 22.7695 24.5195 23.6484C24.9648 23.918 25.3047 24.1523 25.7148 24.1523C26.3945 24.1523 27.0273 23.7773 27.0273 22.8164V6.91406C27.0273 6.71484 27.0156 6.55078 26.8867 6.35156C25.8438 4.53516 23.1953 3 19.9727 3C17.418 3 15.2031 4.01953 14.0195 5.46094C12.8359 4.01953 10.6094 3 8.06641 3C4.83203 3 2.18359 4.53516 1.14062 6.35156C1.02344 6.55078 1 6.71484 1 6.91406V22.8164ZM2.88672 21.8203V7.18359C3.83594 5.8125 5.89844 4.88672 8.06641 4.88672C10.293 4.88672 12.2383 5.82422 13.0703 7.25391V22.0195C11.875 21.0703 10.0117 20.3555 8.06641 20.3555C6.02734 20.3555 4.12891 20.9297 2.88672 21.8203ZM14.957 22.0195V7.25391C15.7891 5.82422 17.7461 4.88672 19.9727 4.88672C22.1289 4.88672 24.1914 5.8125 25.1406 7.18359V21.8203C23.8984 20.9297 22 20.3555 19.9727 20.3555C18.0156 20.3555 16.1523 21.0703 14.957 22.0195Z" fill="black" fill-opacity="0.85"/>
</g>
<defs>
<clipPath id="clip0_2124_88468">
<rect width="26.0273" height="21.7852" fill="white" transform="translate(1 3)"/>
</clipPath>
</defs>
</svg>
