<svg width="32" height="30" viewBox="0 0 32 30" fill="none" xmlns="http://www.w3.org/2000/svg">
<g clip-path="url(#clip0_2124_82363)" filter="url(#filter0_d_2124_82363)">
<path d="M7.67969 21.5977H23.6875C26.1367 21.5977 27.3555 20.3789 27.3555 17.9648V3.65625C27.3555 1.24219 26.1367 0.0234375 23.6875 0.0234375H7.67969C5.23047 0.0234375 4 1.23047 4 3.65625V17.9648C4 20.3906 5.23047 21.5977 7.67969 21.5977ZM7.50391 19.7109C6.46094 19.7109 5.88672 19.1602 5.88672 18.0703V7.01953C5.88672 5.94141 6.46094 5.37891 7.50391 5.37891H23.8398C24.8828 5.37891 25.4688 5.94141 25.4688 7.01953V18.0703C25.4688 19.1602 24.8828 19.7109 23.8398 19.7109H7.50391ZM13.3984 9.58594H14.0898C14.5 9.58594 14.6289 9.46875 14.6289 9.05859V8.36719C14.6289 7.95703 14.5 7.82812 14.0898 7.82812H13.3984C12.9883 7.82812 12.8477 7.95703 12.8477 8.36719V9.05859C12.8477 9.46875 12.9883 9.58594 13.3984 9.58594ZM17.2891 9.58594H17.9805C18.3906 9.58594 18.5312 9.46875 18.5312 9.05859V8.36719C18.5312 7.95703 18.3906 7.82812 17.9805 7.82812H17.2891C16.8789 7.82812 16.7383 7.95703 16.7383 8.36719V9.05859C16.7383 9.46875 16.8789 9.58594 17.2891 9.58594ZM21.1797 9.58594H21.8711C22.2812 9.58594 22.4219 9.46875 22.4219 9.05859V8.36719C22.4219 7.95703 22.2812 7.82812 21.8711 7.82812H21.1797C20.7695 7.82812 20.6406 7.95703 20.6406 8.36719V9.05859C20.6406 9.46875 20.7695 9.58594 21.1797 9.58594ZM9.50781 13.418H10.1875C10.6094 13.418 10.7383 13.3008 10.7383 12.8906V12.1992C10.7383 11.7891 10.6094 11.6719 10.1875 11.6719H9.50781C9.08594 11.6719 8.95703 11.7891 8.95703 12.1992V12.8906C8.95703 13.3008 9.08594 13.418 9.50781 13.418ZM13.3984 13.418H14.0898C14.5 13.418 14.6289 13.3008 14.6289 12.8906V12.1992C14.6289 11.7891 14.5 11.6719 14.0898 11.6719H13.3984C12.9883 11.6719 12.8477 11.7891 12.8477 12.1992V12.8906C12.8477 13.3008 12.9883 13.418 13.3984 13.418ZM17.2891 13.418H17.9805C18.3906 13.418 18.5312 13.3008 18.5312 12.8906V12.1992C18.5312 11.7891 18.3906 11.6719 17.9805 11.6719H17.2891C16.8789 11.6719 16.7383 11.7891 16.7383 12.1992V12.8906C16.7383 13.3008 16.8789 13.418 17.2891 13.418ZM21.1797 13.418H21.8711C22.2812 13.418 22.4219 13.3008 22.4219 12.8906V12.1992C22.4219 11.7891 22.2812 11.6719 21.8711 11.6719H21.1797C20.7695 11.6719 20.6406 11.7891 20.6406 12.1992V12.8906C20.6406 13.3008 20.7695 13.418 21.1797 13.418ZM9.50781 17.2617H10.1875C10.6094 17.2617 10.7383 17.1328 10.7383 16.7227V16.0312C10.7383 15.6211 10.6094 15.5039 10.1875 15.5039H9.50781C9.08594 15.5039 8.95703 15.6211 8.95703 16.0312V16.7227C8.95703 17.1328 9.08594 17.2617 9.50781 17.2617ZM13.3984 17.2617H14.0898C14.5 17.2617 14.6289 17.1328 14.6289 16.7227V16.0312C14.6289 15.6211 14.5 15.5039 14.0898 15.5039H13.3984C12.9883 15.5039 12.8477 15.6211 12.8477 16.0312V16.7227C12.8477 17.1328 12.9883 17.2617 13.3984 17.2617ZM17.2891 17.2617H17.9805C18.3906 17.2617 18.5312 17.1328 18.5312 16.7227V16.0312C18.5312 15.6211 18.3906 15.5039 17.9805 15.5039H17.2891C16.8789 15.5039 16.7383 15.6211 16.7383 16.0312V16.7227C16.7383 17.1328 16.8789 17.2617 17.2891 17.2617Z" fill="black" fill-opacity="0.85"/>
</g>
<defs>
<filter id="filter0_d_2124_82363" x="0" y="0" width="31.3555" height="29.5977" filterUnits="userSpaceOnUse" color-interpolation-filters="sRGB">
<feFlood flood-opacity="0" result="BackgroundImageFix"/>
<feColorMatrix in="SourceAlpha" type="matrix" values="0 0 0 0 0 0 0 0 0 0 0 0 0 0 0 0 0 0 127 0" result="hardAlpha"/>
<feOffset dy="4"/>
<feGaussianBlur stdDeviation="2"/>
<feComposite in2="hardAlpha" operator="out"/>
<feColorMatrix type="matrix" values="0 0 0 0 0 0 0 0 0 0 0 0 0 0 0 0 0 0 0.25 0"/>
<feBlend mode="normal" in2="BackgroundImageFix" result="effect1_dropShadow_2124_82363"/>
<feBlend mode="normal" in="SourceGraphic" in2="effect1_dropShadow_2124_82363" result="shape"/>
</filter>
<clipPath id="clip0_2124_82363">
<rect width="23.3555" height="21.5977" fill="white" transform="translate(4)"/>
</clipPath>
</defs>
</svg>
