<svg width="37" height="28" viewBox="0 0 37 28" fill="none" xmlns="http://www.w3.org/2000/svg">
<g clip-path="url(#clip0_2124_89302)">
<path d="M9.57422 21.625C13.6055 21.625 16.875 18.3555 16.875 14.3125C16.875 10.2812 13.6055 7 9.57422 7C5.53125 7 2.25 10.2812 2.25 14.3125C2.25 18.3555 5.53125 21.625 9.57422 21.625ZM9.57422 19.6445C6.62109 19.6445 4.23047 17.2656 4.23047 14.3125C4.23047 11.3711 6.62109 8.98047 9.57422 8.98047C12.5039 8.98047 14.8945 11.3828 14.8945 14.3125C14.8945 17.2539 12.5039 19.6445 9.57422 19.6445ZM27.4219 21.625C31.4531 21.625 34.7227 18.3555 34.7227 14.3125C34.7227 10.2812 31.4531 7 27.4219 7C23.3789 7 20.0977 10.2812 20.0977 14.3125C20.0977 18.3555 23.3789 21.625 27.4219 21.625ZM27.4219 19.6445C24.4805 19.6445 22.0781 17.2539 22.0781 14.3125C22.0781 11.3828 24.4805 8.98047 27.4219 8.98047C30.3633 8.98047 32.7422 11.3711 32.7422 14.3125C32.7422 17.2656 30.3633 19.6445 27.4219 19.6445ZM3.02344 12.8711H0.878906C0.304688 12.8711 0 13.1641 0 13.75V14.2305C0 14.8164 0.304688 15.1211 0.878906 15.1211H3.02344V12.8711ZM33.9492 15.1211H36.1055C36.6797 15.1211 36.9727 14.8164 36.9727 14.2305V13.75C36.9727 13.1641 36.6797 12.8711 36.1055 12.8711H33.9492V15.1211ZM16.3008 14.7344C16.8867 14.3711 17.707 14.1836 18.4922 14.1836C19.2656 14.1836 20.0859 14.3711 20.6836 14.7344V12.6133C20.0156 12.2969 19.1484 12.1797 18.4922 12.1797C17.8242 12.1797 16.957 12.2969 16.3008 12.6133V14.7344Z" fill="black" fill-opacity="0.85"/>
</g>
<defs>
<clipPath id="clip0_2124_89302">
<rect width="36.9727" height="14.6367" fill="white" transform="translate(0 7)"/>
</clipPath>
</defs>
</svg>
