<svg width="28" height="28" viewBox="0 0 28 28" fill="none" xmlns="http://www.w3.org/2000/svg">
<path d="M8.65625 21.6054H24.6641C25.1914 21.6054 25.6133 21.1953 25.6133 20.668C25.6133 20.1289 25.1914 19.7188 24.6641 19.7188H8.65625C8.11719 19.7188 7.70703 20.1289 7.70703 20.668C7.70703 21.1953 8.11719 21.6054 8.65625 21.6054Z" fill="black" fill-opacity="0.85"/>
<path d="M3.47656 22.1445C4.29688 22.1445 4.95312 21.4766 4.95312 20.668C4.95312 19.8477 4.29688 19.1914 3.47656 19.1914C2.65625 19.1914 2 19.8477 2 20.668C2 21.4766 2.65625 22.1445 3.47656 22.1445Z" fill="black" fill-opacity="0.85"/>
<path d="M8.65625 14.5273H24.6641C25.1914 14.5273 25.6133 14.1055 25.6133 13.5781C25.6133 13.0508 25.1914 12.6406 24.6641 12.6406H8.65625C8.11719 12.6406 7.70703 13.0508 7.70703 13.5781C7.70703 14.1055 8.11719 14.5273 8.65625 14.5273Z" fill="black" fill-opacity="0.85"/>
<path d="M3.47656 15.0547C4.29688 15.0547 4.95312 14.3984 4.95312 13.5781C4.95312 12.7578 4.29688 12.1016 3.47656 12.1016C2.65625 12.1016 2 12.7578 2 13.5781C2 14.3984 2.65625 15.0547 3.47656 15.0547Z" fill="black" fill-opacity="0.85"/>
<path d="M8.65625 7.4375H24.6641C25.1914 7.4375 25.6133 7.02734 25.6133 6.5C25.6133 5.96094 25.1914 5.55078 24.6641 5.55078H8.65625C8.11719 5.55078 7.70703 5.96094 7.70703 6.5C7.70703 7.02734 8.11719 7.4375 8.65625 7.4375Z" fill="black" fill-opacity="0.85"/>
<path d="M3.47656 7.96484C4.29688 7.96484 4.95312 7.30859 4.95312 6.5C4.95312 5.67969 4.29688 5.02344 3.47656 5.02344C2.65625 5.02344 2 5.67969 2 6.5C2 7.30859 2.65625 7.96484 3.47656 7.96484Z" fill="black" fill-opacity="0.85"/>
</svg>
