<svg width="28" height="29" viewBox="0 0 28 29" fill="none" xmlns="http://www.w3.org/2000/svg">
<g clip-path="url(#clip0_2124_13210)">
<path d="M13.1836 5.70703C13.3359 5.70703 13.418 5.61328 13.4414 5.47266C13.793 3.57422 13.7578 3.48047 15.7969 3.11719C15.9375 3.08203 16.0312 3 16.0312 2.84766C16.0312 2.70703 15.9375 2.61328 15.7969 2.58984C13.7578 2.22656 13.793 2.13281 13.4414 0.234375C13.418 0.09375 13.3359 0 13.1836 0C13.0312 0 12.9492 0.09375 12.9258 0.234375C12.5742 2.13281 12.6094 2.22656 10.5703 2.58984C10.418 2.61328 10.3359 2.70703 10.3359 2.84766C10.3359 3 10.418 3.08203 10.5703 3.11719C12.6094 3.48047 12.5742 3.57422 12.9258 5.47266C12.9492 5.61328 13.0312 5.70703 13.1836 5.70703Z" fill="black" fill-opacity="0.85"/>
<path d="M7.51172 13.7695C7.73438 13.7695 7.88672 13.6172 7.91016 13.4062C8.33203 10.2773 8.4375 10.2773 11.6719 9.65625C11.8711 9.62109 12.0234 9.48047 12.0234 9.25781C12.0234 9.04688 11.8711 8.89453 11.6719 8.87109C8.4375 8.41406 8.32031 8.30859 7.91016 5.13281C7.88672 4.91016 7.73438 4.75781 7.51172 4.75781C7.30078 4.75781 7.14844 4.91016 7.11328 5.14453C6.73828 8.27344 6.5625 8.26172 3.35156 8.87109C3.15234 8.90625 3 9.04688 3 9.25781C3 9.49219 3.15234 9.62109 3.39844 9.65625C6.58594 10.1719 6.73828 10.2539 7.11328 13.3828C7.14844 13.6172 7.30078 13.7695 7.51172 13.7695Z" fill="black" fill-opacity="0.85"/>
<path d="M15.457 26.7305C15.7617 26.7305 15.9844 26.5078 16.043 26.1914C16.875 19.7812 17.7773 18.7969 24.1289 18.0938C24.457 18.0586 24.6797 17.8242 24.6797 17.5078C24.6797 17.2031 24.457 16.9688 24.1289 16.9336C17.7773 16.2305 16.875 15.2461 16.043 8.82421C15.9844 8.5078 15.7617 8.29688 15.457 8.29688C15.1523 8.29688 14.9297 8.5078 14.8828 8.82421C14.0508 15.2461 13.1367 16.2305 6.79688 16.9336C6.45702 16.9688 6.23438 17.2031 6.23438 17.5078C6.23438 17.8242 6.45702 18.0586 6.79688 18.0938C13.125 18.9258 14.0039 19.7812 14.8828 26.1914C14.9297 26.5078 15.1523 26.7305 15.457 26.7305Z" fill="black" fill-opacity="0.85"/>
</g>
<defs>
<clipPath id="clip0_2124_13210">
<rect width="21.6797" height="28.8867" fill="white" transform="translate(3)"/>
</clipPath>
</defs>
</svg>
