<svg width="28" height="28" viewBox="0 0 28 28" fill="none" xmlns="http://www.w3.org/2000/svg">
<g clip-path="url(#clip0_2124_88694)">
<path d="M14.8194 26.0962L26.2451 14.647C27.124 13.7681 27.1826 13.2642 27.1826 12.0337V7.58057C27.1826 6.33838 26.8897 5.95166 25.999 5.06104L23.3037 2.36573C22.4248 1.48682 22.0381 1.18213 20.7959 1.18213H16.3311C15.1006 1.18213 14.6084 1.24073 13.7295 2.11963L2.26857 13.5571C0.592789 15.2329 0.557632 16.9673 2.28029 18.6782L9.69826 26.0845C11.4209 27.7954 13.1436 27.772 14.8194 26.0962ZM18.8272 10.5571C17.9014 10.5571 17.2217 9.84229 17.2217 8.95166C17.2217 8.04932 17.9014 7.3462 18.8272 7.3462C19.7412 7.3462 20.4326 8.04932 20.4326 8.95166C20.4326 9.84229 19.7412 10.5571 18.8272 10.5571Z" fill="black" fill-opacity="0.85"/>
</g>
<defs>
<clipPath id="clip0_2124_88694">
<rect width="26.1826" height="27.3604" fill="white" transform="translate(1)"/>
</clipPath>
</defs>
</svg>
